<mxfile host="app.diagrams.net" agent="Mozilla/5.0 (Windows NT 10.0; Win64; x64) AppleWebKit/537.36 (KHTML, like Gecko) Chrome/131.0.0.0 Safari/537.36" version="24.9.1">
  <diagram name="Page-1" id="ubZNylbjSLQ--W15-YD3">
    <mxGraphModel dx="1843" dy="1668" grid="1" gridSize="10" guides="1" tooltips="1" connect="1" arrows="1" fold="1" page="1" pageScale="1" pageWidth="850" pageHeight="1100" math="0" shadow="0">
      <root>
        <mxCell id="0" />
        <mxCell id="1" parent="0" />
        <mxCell id="0jYfMFimLVowDTcHO_YO-1" value="Dept. TIK" style="rounded=0;whiteSpace=wrap;html=1;" parent="1" vertex="1">
          <mxGeometry x="700" y="20" width="120" height="40" as="geometry" />
        </mxCell>
        <mxCell id="0jYfMFimLVowDTcHO_YO-2" value="Dept. DI" style="rounded=0;whiteSpace=wrap;html=1;" parent="1" vertex="1">
          <mxGeometry x="120" y="-30" width="120" height="40" as="geometry" />
        </mxCell>
        <mxCell id="0jYfMFimLVowDTcHO_YO-3" value="Dept. Keuangan&amp;nbsp;" style="rounded=0;whiteSpace=wrap;html=1;" parent="1" vertex="1">
          <mxGeometry x="-20" y="170" width="120" height="40" as="geometry" />
        </mxCell>
        <mxCell id="0jYfMFimLVowDTcHO_YO-4" value="Direksi&amp;nbsp;" style="rounded=0;whiteSpace=wrap;html=1;" parent="1" vertex="1">
          <mxGeometry x="780" y="170" width="120" height="40" as="geometry" />
        </mxCell>
        <mxCell id="0jYfMFimLVowDTcHO_YO-5" value="PM" style="rounded=0;whiteSpace=wrap;html=1;" parent="1" vertex="1">
          <mxGeometry x="430" y="165" width="120" height="40" as="geometry" />
        </mxCell>
        <mxCell id="0jYfMFimLVowDTcHO_YO-6" value="Pemberi_Kerja" style="ellipse;whiteSpace=wrap;html=1;" parent="1" vertex="1">
          <mxGeometry x="360" y="340" width="100" height="50" as="geometry" />
        </mxCell>
        <mxCell id="0jYfMFimLVowDTcHO_YO-7" value="Nama_Tim" style="ellipse;whiteSpace=wrap;html=1;" parent="1" vertex="1">
          <mxGeometry x="440" y="380" width="100" height="50" as="geometry" />
        </mxCell>
        <mxCell id="0jYfMFimLVowDTcHO_YO-8" value="Nama_Pekerjaan" style="ellipse;whiteSpace=wrap;html=1;" parent="1" vertex="1">
          <mxGeometry x="530" y="340" width="100" height="50" as="geometry" />
        </mxCell>
        <mxCell id="0jYfMFimLVowDTcHO_YO-9" value="File_Proposal" style="ellipse;whiteSpace=wrap;html=1;" parent="1" vertex="1">
          <mxGeometry x="50" y="-120" width="100" height="50" as="geometry" />
        </mxCell>
        <mxCell id="0jYfMFimLVowDTcHO_YO-10" value="File_Prakualifikasi" style="ellipse;whiteSpace=wrap;html=1;" parent="1" vertex="1">
          <mxGeometry x="-10" y="-35" width="100" height="50" as="geometry" />
        </mxCell>
        <mxCell id="0jYfMFimLVowDTcHO_YO-11" value="FIle_Pendaftaran" style="ellipse;whiteSpace=wrap;html=1;" parent="1" vertex="1">
          <mxGeometry x="210" y="-110" width="100" height="50" as="geometry" />
        </mxCell>
        <mxCell id="0jYfMFimLVowDTcHO_YO-13" style="edgeStyle=orthogonalEdgeStyle;rounded=0;orthogonalLoop=1;jettySize=auto;html=1;exitX=0.5;exitY=1;exitDx=0;exitDy=0;" parent="1" source="0jYfMFimLVowDTcHO_YO-2" target="0jYfMFimLVowDTcHO_YO-2" edge="1">
          <mxGeometry relative="1" as="geometry" />
        </mxCell>
        <mxCell id="0jYfMFimLVowDTcHO_YO-14" value="File_Manager" style="ellipse;whiteSpace=wrap;html=1;" parent="1" vertex="1">
          <mxGeometry x="860" y="15" width="100" height="50" as="geometry" />
        </mxCell>
        <mxCell id="0jYfMFimLVowDTcHO_YO-15" value="File_Request Invoice" style="ellipse;whiteSpace=wrap;html=1;" parent="1" vertex="1">
          <mxGeometry x="930" y="-40" width="100" height="50" as="geometry" />
        </mxCell>
        <mxCell id="0jYfMFimLVowDTcHO_YO-16" value="Data Tidak Terupdate" style="ellipse;whiteSpace=wrap;html=1;" parent="1" vertex="1">
          <mxGeometry x="930" y="70" width="100" height="50" as="geometry" />
        </mxCell>
        <mxCell id="0jYfMFimLVowDTcHO_YO-18" value="Melaporkan Error/Bugs" style="rhombus;whiteSpace=wrap;html=1;" parent="1" vertex="1">
          <mxGeometry x="450" width="80" height="80" as="geometry" />
        </mxCell>
        <mxCell id="0jYfMFimLVowDTcHO_YO-20" value="File_Terupload Tetapi Tidak ada&amp;nbsp;" style="ellipse;whiteSpace=wrap;html=1;" parent="1" vertex="1">
          <mxGeometry x="380" y="-60" width="100" height="50" as="geometry" />
        </mxCell>
        <mxCell id="0jYfMFimLVowDTcHO_YO-22" value="File_Manager" style="ellipse;whiteSpace=wrap;html=1;" parent="1" vertex="1">
          <mxGeometry x="530" y="-60" width="100" height="50" as="geometry" />
        </mxCell>
        <mxCell id="0jYfMFimLVowDTcHO_YO-23" value="&lt;font style=&quot;font-size: 10px;&quot;&gt;Mengajukan Verifikasi dan Pengecekan&lt;/font&gt;" style="rhombus;whiteSpace=wrap;html=1;" parent="1" vertex="1">
          <mxGeometry x="240" y="30" width="140" height="80" as="geometry" />
        </mxCell>
        <mxCell id="0jYfMFimLVowDTcHO_YO-24" value="&lt;font style=&quot;font-size: 10px;&quot;&gt;Mengajukan Request Invoicie&lt;/font&gt;" style="rhombus;whiteSpace=wrap;html=1;" parent="1" vertex="1">
          <mxGeometry x="190" y="140" width="90" height="100" as="geometry" />
        </mxCell>
        <mxCell id="0jYfMFimLVowDTcHO_YO-25" value="No_Invoice" style="ellipse;whiteSpace=wrap;html=1;" parent="1" vertex="1">
          <mxGeometry x="-230" y="120" width="100" height="50" as="geometry" />
        </mxCell>
        <mxCell id="0jYfMFimLVowDTcHO_YO-26" value="File_Invoice" style="ellipse;whiteSpace=wrap;html=1;" parent="1" vertex="1">
          <mxGeometry x="-150" y="165" width="100" height="50" as="geometry" />
        </mxCell>
        <mxCell id="0jYfMFimLVowDTcHO_YO-27" value="Jenis_Tagihan" style="ellipse;whiteSpace=wrap;html=1;" parent="1" vertex="1">
          <mxGeometry x="-230" y="215" width="100" height="50" as="geometry" />
        </mxCell>
        <mxCell id="0jYfMFimLVowDTcHO_YO-29" value="&lt;font style=&quot;font-size: 10px;&quot;&gt;Mengajukan Keputusan&lt;/font&gt;" style="rhombus;whiteSpace=wrap;html=1;" parent="1" vertex="1">
          <mxGeometry x="650" y="140" width="90" height="90" as="geometry" />
        </mxCell>
        <mxCell id="0jYfMFimLVowDTcHO_YO-30" value="Request_Invoice" style="ellipse;whiteSpace=wrap;html=1;rotation=0;" parent="1" vertex="1">
          <mxGeometry x="130" y="280" width="100" height="50" as="geometry" />
        </mxCell>
        <mxCell id="0jYfMFimLVowDTcHO_YO-31" value="Nilai_Penagihan" style="ellipse;whiteSpace=wrap;html=1;rotation=0;" parent="1" vertex="1">
          <mxGeometry x="240" y="280" width="100" height="50" as="geometry" />
        </mxCell>
        <mxCell id="0jYfMFimLVowDTcHO_YO-33" value="FIle_Pengadaan" style="ellipse;whiteSpace=wrap;html=1;" parent="1" vertex="1">
          <mxGeometry x="950" y="165" width="100" height="50" as="geometry" />
        </mxCell>
        <mxCell id="0jYfMFimLVowDTcHO_YO-37" value="File_Pengadaan" style="ellipse;whiteSpace=wrap;html=1;" parent="1" vertex="1">
          <mxGeometry x="645" y="250" width="100" height="50" as="geometry" />
        </mxCell>
        <mxCell id="cbZ9QSaGFKGjNICXO5lZ-7" value="Seluruh Data_Proyek" style="ellipse;whiteSpace=wrap;html=1;" vertex="1" parent="1">
          <mxGeometry x="440" y="260" width="100" height="40" as="geometry" />
        </mxCell>
        <mxCell id="cbZ9QSaGFKGjNICXO5lZ-21" value="" style="endArrow=none;html=1;rounded=0;exitX=1;exitY=1;exitDx=0;exitDy=0;entryX=0;entryY=0;entryDx=0;entryDy=0;" edge="1" parent="1" source="cbZ9QSaGFKGjNICXO5lZ-7" target="0jYfMFimLVowDTcHO_YO-8">
          <mxGeometry width="50" height="50" relative="1" as="geometry">
            <mxPoint x="610" y="270" as="sourcePoint" />
            <mxPoint x="660" y="220" as="targetPoint" />
          </mxGeometry>
        </mxCell>
        <mxCell id="cbZ9QSaGFKGjNICXO5lZ-22" value="" style="endArrow=none;html=1;rounded=0;exitX=0.5;exitY=1;exitDx=0;exitDy=0;entryX=0.5;entryY=0;entryDx=0;entryDy=0;" edge="1" parent="1" source="0jYfMFimLVowDTcHO_YO-5" target="cbZ9QSaGFKGjNICXO5lZ-7">
          <mxGeometry width="50" height="50" relative="1" as="geometry">
            <mxPoint x="610" y="270" as="sourcePoint" />
            <mxPoint x="660" y="220" as="targetPoint" />
          </mxGeometry>
        </mxCell>
        <mxCell id="cbZ9QSaGFKGjNICXO5lZ-23" value="" style="endArrow=none;html=1;rounded=0;exitX=0.5;exitY=1;exitDx=0;exitDy=0;" edge="1" parent="1" source="cbZ9QSaGFKGjNICXO5lZ-7" target="0jYfMFimLVowDTcHO_YO-7">
          <mxGeometry width="50" height="50" relative="1" as="geometry">
            <mxPoint x="610" y="270" as="sourcePoint" />
            <mxPoint x="660" y="220" as="targetPoint" />
          </mxGeometry>
        </mxCell>
        <mxCell id="cbZ9QSaGFKGjNICXO5lZ-24" value="" style="endArrow=none;html=1;rounded=0;exitX=0;exitY=1;exitDx=0;exitDy=0;entryX=0.8;entryY=0.071;entryDx=0;entryDy=0;entryPerimeter=0;" edge="1" parent="1" source="cbZ9QSaGFKGjNICXO5lZ-7" target="0jYfMFimLVowDTcHO_YO-6">
          <mxGeometry width="50" height="50" relative="1" as="geometry">
            <mxPoint x="610" y="270" as="sourcePoint" />
            <mxPoint x="660" y="220" as="targetPoint" />
          </mxGeometry>
        </mxCell>
        <mxCell id="cbZ9QSaGFKGjNICXO5lZ-25" value="" style="endArrow=none;html=1;rounded=0;exitX=0.5;exitY=0;exitDx=0;exitDy=0;entryX=0.5;entryY=1;entryDx=0;entryDy=0;" edge="1" parent="1" source="0jYfMFimLVowDTcHO_YO-5" target="0jYfMFimLVowDTcHO_YO-18">
          <mxGeometry width="50" height="50" relative="1" as="geometry">
            <mxPoint x="610" y="270" as="sourcePoint" />
            <mxPoint x="660" y="220" as="targetPoint" />
          </mxGeometry>
        </mxCell>
        <mxCell id="cbZ9QSaGFKGjNICXO5lZ-27" value="" style="endArrow=none;html=1;rounded=0;entryX=0;entryY=1;entryDx=0;entryDy=0;exitX=1;exitY=0;exitDx=0;exitDy=0;" edge="1" parent="1" source="0jYfMFimLVowDTcHO_YO-18" target="0jYfMFimLVowDTcHO_YO-22">
          <mxGeometry width="50" height="50" relative="1" as="geometry">
            <mxPoint x="610" y="100" as="sourcePoint" />
            <mxPoint x="660" y="50" as="targetPoint" />
          </mxGeometry>
        </mxCell>
        <mxCell id="cbZ9QSaGFKGjNICXO5lZ-28" value="" style="endArrow=none;html=1;rounded=0;entryX=0.667;entryY=0.957;entryDx=0;entryDy=0;entryPerimeter=0;exitX=0;exitY=0;exitDx=0;exitDy=0;" edge="1" parent="1" source="0jYfMFimLVowDTcHO_YO-18" target="0jYfMFimLVowDTcHO_YO-20">
          <mxGeometry width="50" height="50" relative="1" as="geometry">
            <mxPoint x="610" y="100" as="sourcePoint" />
            <mxPoint x="660" y="50" as="targetPoint" />
          </mxGeometry>
        </mxCell>
        <mxCell id="cbZ9QSaGFKGjNICXO5lZ-29" value="" style="endArrow=none;html=1;rounded=0;exitX=1;exitY=0.5;exitDx=0;exitDy=0;entryX=0;entryY=0.5;entryDx=0;entryDy=0;" edge="1" parent="1" source="0jYfMFimLVowDTcHO_YO-18" target="0jYfMFimLVowDTcHO_YO-1">
          <mxGeometry width="50" height="50" relative="1" as="geometry">
            <mxPoint x="590" y="180" as="sourcePoint" />
            <mxPoint x="640" y="130" as="targetPoint" />
          </mxGeometry>
        </mxCell>
        <mxCell id="cbZ9QSaGFKGjNICXO5lZ-31" value="" style="endArrow=none;html=1;rounded=0;entryX=0;entryY=0.5;entryDx=0;entryDy=0;exitX=0.5;exitY=1;exitDx=0;exitDy=0;" edge="1" parent="1" source="0jYfMFimLVowDTcHO_YO-23" target="0jYfMFimLVowDTcHO_YO-5">
          <mxGeometry width="50" height="50" relative="1" as="geometry">
            <mxPoint x="470" y="280" as="sourcePoint" />
            <mxPoint x="520" y="230" as="targetPoint" />
            <Array as="points">
              <mxPoint x="310" y="185" />
            </Array>
          </mxGeometry>
        </mxCell>
        <mxCell id="cbZ9QSaGFKGjNICXO5lZ-34" value="" style="endArrow=none;html=1;rounded=0;exitX=0.5;exitY=0;exitDx=0;exitDy=0;entryX=1;entryY=0.5;entryDx=0;entryDy=0;" edge="1" parent="1" source="0jYfMFimLVowDTcHO_YO-23" target="0jYfMFimLVowDTcHO_YO-2">
          <mxGeometry width="50" height="50" relative="1" as="geometry">
            <mxPoint x="470" y="150" as="sourcePoint" />
            <mxPoint x="520" y="100" as="targetPoint" />
            <Array as="points">
              <mxPoint x="310" y="-10" />
            </Array>
          </mxGeometry>
        </mxCell>
        <mxCell id="cbZ9QSaGFKGjNICXO5lZ-36" value="" style="endArrow=none;html=1;rounded=0;exitX=1;exitY=0.5;exitDx=0;exitDy=0;" edge="1" parent="1" source="0jYfMFimLVowDTcHO_YO-24">
          <mxGeometry width="50" height="50" relative="1" as="geometry">
            <mxPoint x="470" y="280" as="sourcePoint" />
            <mxPoint x="430" y="190" as="targetPoint" />
          </mxGeometry>
        </mxCell>
        <mxCell id="cbZ9QSaGFKGjNICXO5lZ-40" value="" style="endArrow=none;html=1;rounded=0;exitX=1;exitY=0.5;exitDx=0;exitDy=0;entryX=0;entryY=0.5;entryDx=0;entryDy=0;" edge="1" parent="1" source="0jYfMFimLVowDTcHO_YO-3" target="0jYfMFimLVowDTcHO_YO-24">
          <mxGeometry width="50" height="50" relative="1" as="geometry">
            <mxPoint x="550" y="210" as="sourcePoint" />
            <mxPoint x="600" y="160" as="targetPoint" />
          </mxGeometry>
        </mxCell>
        <mxCell id="cbZ9QSaGFKGjNICXO5lZ-42" value="" style="endArrow=none;html=1;rounded=0;entryX=0;entryY=0.5;entryDx=0;entryDy=0;exitX=1;exitY=0.5;exitDx=0;exitDy=0;" edge="1" parent="1" source="0jYfMFimLVowDTcHO_YO-5" target="0jYfMFimLVowDTcHO_YO-29">
          <mxGeometry width="50" height="50" relative="1" as="geometry">
            <mxPoint x="560" y="190" as="sourcePoint" />
            <mxPoint x="600" y="160" as="targetPoint" />
          </mxGeometry>
        </mxCell>
        <mxCell id="cbZ9QSaGFKGjNICXO5lZ-43" value="" style="endArrow=none;html=1;rounded=0;exitX=1;exitY=1;exitDx=0;exitDy=0;entryX=0.5;entryY=0;entryDx=0;entryDy=0;" edge="1" parent="1" source="0jYfMFimLVowDTcHO_YO-24" target="0jYfMFimLVowDTcHO_YO-31">
          <mxGeometry width="50" height="50" relative="1" as="geometry">
            <mxPoint x="550" y="220" as="sourcePoint" />
            <mxPoint x="600" y="170" as="targetPoint" />
          </mxGeometry>
        </mxCell>
        <mxCell id="cbZ9QSaGFKGjNICXO5lZ-44" value="" style="endArrow=none;html=1;rounded=0;exitX=0;exitY=1;exitDx=0;exitDy=0;entryX=0.5;entryY=0;entryDx=0;entryDy=0;" edge="1" parent="1" source="0jYfMFimLVowDTcHO_YO-24" target="0jYfMFimLVowDTcHO_YO-30">
          <mxGeometry width="50" height="50" relative="1" as="geometry">
            <mxPoint x="550" y="220" as="sourcePoint" />
            <mxPoint x="600" y="170" as="targetPoint" />
          </mxGeometry>
        </mxCell>
        <mxCell id="cbZ9QSaGFKGjNICXO5lZ-45" value="" style="endArrow=none;html=1;rounded=0;exitX=1;exitY=0.5;exitDx=0;exitDy=0;entryX=0;entryY=0.5;entryDx=0;entryDy=0;" edge="1" parent="1" source="0jYfMFimLVowDTcHO_YO-26" target="0jYfMFimLVowDTcHO_YO-3">
          <mxGeometry width="50" height="50" relative="1" as="geometry">
            <mxPoint x="-80" y="110" as="sourcePoint" />
            <mxPoint x="80" y="110" as="targetPoint" />
          </mxGeometry>
        </mxCell>
        <mxCell id="cbZ9QSaGFKGjNICXO5lZ-46" value="" style="endArrow=none;html=1;rounded=0;exitX=1;exitY=0;exitDx=0;exitDy=0;entryX=0;entryY=1;entryDx=0;entryDy=0;" edge="1" parent="1" source="0jYfMFimLVowDTcHO_YO-27" target="0jYfMFimLVowDTcHO_YO-26">
          <mxGeometry width="50" height="50" relative="1" as="geometry">
            <mxPoint x="20" y="320" as="sourcePoint" />
            <mxPoint x="70" y="270" as="targetPoint" />
          </mxGeometry>
        </mxCell>
        <mxCell id="cbZ9QSaGFKGjNICXO5lZ-47" value="" style="endArrow=none;html=1;rounded=0;exitX=1;exitY=1;exitDx=0;exitDy=0;entryX=0;entryY=0;entryDx=0;entryDy=0;" edge="1" parent="1" source="0jYfMFimLVowDTcHO_YO-25" target="0jYfMFimLVowDTcHO_YO-26">
          <mxGeometry width="50" height="50" relative="1" as="geometry">
            <mxPoint x="20" y="320" as="sourcePoint" />
            <mxPoint x="70" y="270" as="targetPoint" />
          </mxGeometry>
        </mxCell>
        <mxCell id="cbZ9QSaGFKGjNICXO5lZ-48" value="&lt;font style=&quot;font-size: 11px;&quot;&gt;Memperbaiki Error&lt;/font&gt;" style="rhombus;whiteSpace=wrap;html=1;" vertex="1" parent="1">
          <mxGeometry x="720" y="-75" width="80" height="80" as="geometry" />
        </mxCell>
        <mxCell id="cbZ9QSaGFKGjNICXO5lZ-49" value="" style="endArrow=none;html=1;rounded=0;exitX=0.5;exitY=1;exitDx=0;exitDy=0;entryX=0.5;entryY=0;entryDx=0;entryDy=0;" edge="1" parent="1" source="cbZ9QSaGFKGjNICXO5lZ-48" target="0jYfMFimLVowDTcHO_YO-1">
          <mxGeometry width="50" height="50" relative="1" as="geometry">
            <mxPoint x="460" y="50" as="sourcePoint" />
            <mxPoint x="510" as="targetPoint" />
          </mxGeometry>
        </mxCell>
        <mxCell id="cbZ9QSaGFKGjNICXO5lZ-50" value="" style="endArrow=none;html=1;rounded=0;exitX=0.5;exitY=0;exitDx=0;exitDy=0;entryX=1;entryY=0.5;entryDx=0;entryDy=0;" edge="1" parent="1" source="cbZ9QSaGFKGjNICXO5lZ-48" target="0jYfMFimLVowDTcHO_YO-1">
          <mxGeometry width="50" height="50" relative="1" as="geometry">
            <mxPoint x="460" y="50" as="sourcePoint" />
            <mxPoint x="510" as="targetPoint" />
            <Array as="points">
              <mxPoint x="760" y="-120" />
              <mxPoint x="840" y="-120" />
              <mxPoint x="840" y="-75" />
              <mxPoint x="840" y="-30" />
              <mxPoint x="840" />
              <mxPoint x="840" y="40" />
            </Array>
          </mxGeometry>
        </mxCell>
        <mxCell id="cbZ9QSaGFKGjNICXO5lZ-51" value="" style="endArrow=none;html=1;rounded=0;exitX=1;exitY=0.5;exitDx=0;exitDy=0;entryX=0;entryY=0.5;entryDx=0;entryDy=0;" edge="1" parent="1" source="0jYfMFimLVowDTcHO_YO-4" target="0jYfMFimLVowDTcHO_YO-33">
          <mxGeometry width="50" height="50" relative="1" as="geometry">
            <mxPoint x="420" y="130" as="sourcePoint" />
            <mxPoint x="470" y="80" as="targetPoint" />
          </mxGeometry>
        </mxCell>
        <mxCell id="cbZ9QSaGFKGjNICXO5lZ-52" value="" style="endArrow=none;html=1;rounded=0;exitX=1;exitY=0.75;exitDx=0;exitDy=0;entryX=0.02;entryY=0.68;entryDx=0;entryDy=0;entryPerimeter=0;" edge="1" parent="1" source="0jYfMFimLVowDTcHO_YO-1" target="0jYfMFimLVowDTcHO_YO-14">
          <mxGeometry width="50" height="50" relative="1" as="geometry">
            <mxPoint x="900" y="120" as="sourcePoint" />
            <mxPoint x="950" y="70" as="targetPoint" />
          </mxGeometry>
        </mxCell>
        <mxCell id="cbZ9QSaGFKGjNICXO5lZ-53" value="" style="endArrow=none;html=1;rounded=0;exitX=0.687;exitY=0.007;exitDx=0;exitDy=0;exitPerimeter=0;entryX=0;entryY=1;entryDx=0;entryDy=0;" edge="1" parent="1" source="0jYfMFimLVowDTcHO_YO-14" target="0jYfMFimLVowDTcHO_YO-15">
          <mxGeometry width="50" height="50" relative="1" as="geometry">
            <mxPoint x="900" y="120" as="sourcePoint" />
            <mxPoint x="950" y="70" as="targetPoint" />
          </mxGeometry>
        </mxCell>
        <mxCell id="cbZ9QSaGFKGjNICXO5lZ-54" value="" style="endArrow=none;html=1;rounded=0;exitX=0.618;exitY=1.024;exitDx=0;exitDy=0;exitPerimeter=0;entryX=0.067;entryY=0.221;entryDx=0;entryDy=0;entryPerimeter=0;" edge="1" parent="1" source="0jYfMFimLVowDTcHO_YO-14" target="0jYfMFimLVowDTcHO_YO-16">
          <mxGeometry width="50" height="50" relative="1" as="geometry">
            <mxPoint x="900" y="120" as="sourcePoint" />
            <mxPoint x="950" y="70" as="targetPoint" />
          </mxGeometry>
        </mxCell>
        <mxCell id="cbZ9QSaGFKGjNICXO5lZ-55" value="" style="endArrow=none;html=1;rounded=0;exitX=1;exitY=0.5;exitDx=0;exitDy=0;" edge="1" parent="1" source="0jYfMFimLVowDTcHO_YO-29" target="0jYfMFimLVowDTcHO_YO-4">
          <mxGeometry width="50" height="50" relative="1" as="geometry">
            <mxPoint x="750" y="110" as="sourcePoint" />
            <mxPoint x="800" y="60" as="targetPoint" />
          </mxGeometry>
        </mxCell>
        <mxCell id="cbZ9QSaGFKGjNICXO5lZ-56" value="" style="endArrow=none;html=1;rounded=0;exitX=0.667;exitY=0.031;exitDx=0;exitDy=0;exitPerimeter=0;entryX=0;entryY=1;entryDx=0;entryDy=0;" edge="1" parent="1" source="0jYfMFimLVowDTcHO_YO-2" target="0jYfMFimLVowDTcHO_YO-11">
          <mxGeometry width="50" height="50" relative="1" as="geometry">
            <mxPoint x="690" y="200" as="sourcePoint" />
            <mxPoint x="740" y="150" as="targetPoint" />
          </mxGeometry>
        </mxCell>
        <mxCell id="cbZ9QSaGFKGjNICXO5lZ-57" value="" style="endArrow=none;html=1;rounded=0;exitX=1;exitY=1;exitDx=0;exitDy=0;entryX=0.25;entryY=0;entryDx=0;entryDy=0;" edge="1" parent="1" source="0jYfMFimLVowDTcHO_YO-9" target="0jYfMFimLVowDTcHO_YO-2">
          <mxGeometry width="50" height="50" relative="1" as="geometry">
            <mxPoint x="690" y="200" as="sourcePoint" />
            <mxPoint x="740" y="150" as="targetPoint" />
          </mxGeometry>
        </mxCell>
        <mxCell id="cbZ9QSaGFKGjNICXO5lZ-58" value="" style="endArrow=none;html=1;rounded=0;exitX=1;exitY=0.5;exitDx=0;exitDy=0;entryX=0;entryY=0.5;entryDx=0;entryDy=0;" edge="1" parent="1" source="0jYfMFimLVowDTcHO_YO-10" target="0jYfMFimLVowDTcHO_YO-2">
          <mxGeometry width="50" height="50" relative="1" as="geometry">
            <mxPoint x="690" y="200" as="sourcePoint" />
            <mxPoint x="740" y="150" as="targetPoint" />
          </mxGeometry>
        </mxCell>
        <mxCell id="cbZ9QSaGFKGjNICXO5lZ-59" value="" style="endArrow=none;html=1;rounded=0;exitX=0.5;exitY=1;exitDx=0;exitDy=0;entryX=0.5;entryY=0;entryDx=0;entryDy=0;" edge="1" parent="1" source="0jYfMFimLVowDTcHO_YO-29" target="0jYfMFimLVowDTcHO_YO-37">
          <mxGeometry width="50" height="50" relative="1" as="geometry">
            <mxPoint x="690" y="200" as="sourcePoint" />
            <mxPoint x="740" y="150" as="targetPoint" />
          </mxGeometry>
        </mxCell>
        <mxCell id="cbZ9QSaGFKGjNICXO5lZ-60" value="" style="rounded=0;whiteSpace=wrap;html=1;fillColor=none;" vertex="1" parent="1">
          <mxGeometry x="-270" y="-140" width="1360" height="580" as="geometry" />
        </mxCell>
        <mxCell id="cbZ9QSaGFKGjNICXO5lZ-61" value="" style="shape=table;startSize=0;container=1;collapsible=0;childLayout=tableLayout;fontSize=16;" vertex="1" parent="1">
          <mxGeometry x="480" y="470" width="200" height="289.9999999999993" as="geometry" />
        </mxCell>
        <mxCell id="cbZ9QSaGFKGjNICXO5lZ-62" value="" style="shape=tableRow;horizontal=0;startSize=0;swimlaneHead=0;swimlaneBody=0;strokeColor=inherit;top=0;left=0;bottom=0;right=0;collapsible=0;dropTarget=0;fillColor=none;points=[[0,0.5],[1,0.5]];portConstraint=eastwest;fontSize=16;" vertex="1" parent="cbZ9QSaGFKGjNICXO5lZ-61">
          <mxGeometry width="200" height="50" as="geometry" />
        </mxCell>
        <mxCell id="cbZ9QSaGFKGjNICXO5lZ-63" value="" style="shape=partialRectangle;html=1;whiteSpace=wrap;connectable=0;strokeColor=inherit;overflow=hidden;fillColor=none;top=0;left=0;bottom=0;right=0;pointerEvents=1;fontSize=16;" vertex="1" parent="cbZ9QSaGFKGjNICXO5lZ-62">
          <mxGeometry width="100" height="50" as="geometry">
            <mxRectangle width="100" height="50" as="alternateBounds" />
          </mxGeometry>
        </mxCell>
        <mxCell id="cbZ9QSaGFKGjNICXO5lZ-64" value="&lt;font style=&quot;font-size: 11px;&quot;&gt;Departemen Yang Bertanggung Jawab&lt;/font&gt;" style="shape=partialRectangle;html=1;whiteSpace=wrap;connectable=0;strokeColor=inherit;overflow=hidden;fillColor=none;top=0;left=0;bottom=0;right=0;pointerEvents=1;fontSize=16;" vertex="1" parent="cbZ9QSaGFKGjNICXO5lZ-62">
          <mxGeometry x="100" width="100" height="50" as="geometry">
            <mxRectangle width="100" height="50" as="alternateBounds" />
          </mxGeometry>
        </mxCell>
        <mxCell id="cbZ9QSaGFKGjNICXO5lZ-66" value="" style="shape=tableRow;horizontal=0;startSize=0;swimlaneHead=0;swimlaneBody=0;strokeColor=inherit;top=0;left=0;bottom=0;right=0;collapsible=0;dropTarget=0;fillColor=none;points=[[0,0.5],[1,0.5]];portConstraint=eastwest;fontSize=16;" vertex="1" parent="cbZ9QSaGFKGjNICXO5lZ-61">
          <mxGeometry y="50" width="200" height="50" as="geometry" />
        </mxCell>
        <mxCell id="cbZ9QSaGFKGjNICXO5lZ-67" value="" style="shape=partialRectangle;html=1;whiteSpace=wrap;connectable=0;strokeColor=inherit;overflow=hidden;fillColor=none;top=0;left=0;bottom=0;right=0;pointerEvents=1;fontSize=16;" vertex="1" parent="cbZ9QSaGFKGjNICXO5lZ-66">
          <mxGeometry width="100" height="50" as="geometry">
            <mxRectangle width="100" height="50" as="alternateBounds" />
          </mxGeometry>
        </mxCell>
        <mxCell id="cbZ9QSaGFKGjNICXO5lZ-68" value="&lt;font style=&quot;font-size: 11px;&quot;&gt;Relasi Yang Terjadi antara Departemen&lt;/font&gt;" style="shape=partialRectangle;html=1;whiteSpace=wrap;connectable=0;strokeColor=inherit;overflow=hidden;fillColor=none;top=0;left=0;bottom=0;right=0;pointerEvents=1;fontSize=16;" vertex="1" parent="cbZ9QSaGFKGjNICXO5lZ-66">
          <mxGeometry x="100" width="100" height="50" as="geometry">
            <mxRectangle width="100" height="50" as="alternateBounds" />
          </mxGeometry>
        </mxCell>
        <mxCell id="cbZ9QSaGFKGjNICXO5lZ-74" style="shape=tableRow;horizontal=0;startSize=0;swimlaneHead=0;swimlaneBody=0;strokeColor=inherit;top=0;left=0;bottom=0;right=0;collapsible=0;dropTarget=0;fillColor=none;points=[[0,0.5],[1,0.5]];portConstraint=eastwest;fontSize=16;" vertex="1" parent="cbZ9QSaGFKGjNICXO5lZ-61">
          <mxGeometry y="100" width="200" height="60" as="geometry" />
        </mxCell>
        <mxCell id="cbZ9QSaGFKGjNICXO5lZ-75" style="shape=partialRectangle;html=1;whiteSpace=wrap;connectable=0;strokeColor=inherit;overflow=hidden;fillColor=none;top=0;left=0;bottom=0;right=0;pointerEvents=1;fontSize=16;" vertex="1" parent="cbZ9QSaGFKGjNICXO5lZ-74">
          <mxGeometry width="100" height="60" as="geometry">
            <mxRectangle width="100" height="60" as="alternateBounds" />
          </mxGeometry>
        </mxCell>
        <mxCell id="cbZ9QSaGFKGjNICXO5lZ-76" value="&lt;span style=&quot;font-size: 11px;&quot;&gt;Relasi Yang Terjadi antara Departemen&lt;/span&gt;" style="shape=partialRectangle;html=1;whiteSpace=wrap;connectable=0;strokeColor=inherit;overflow=hidden;fillColor=none;top=0;left=0;bottom=0;right=0;pointerEvents=1;fontSize=16;" vertex="1" parent="cbZ9QSaGFKGjNICXO5lZ-74">
          <mxGeometry x="100" width="100" height="60" as="geometry">
            <mxRectangle width="100" height="60" as="alternateBounds" />
          </mxGeometry>
        </mxCell>
        <mxCell id="cbZ9QSaGFKGjNICXO5lZ-82" style="shape=tableRow;horizontal=0;startSize=0;swimlaneHead=0;swimlaneBody=0;strokeColor=inherit;top=0;left=0;bottom=0;right=0;collapsible=0;dropTarget=0;fillColor=none;points=[[0,0.5],[1,0.5]];portConstraint=eastwest;fontSize=16;" vertex="1" parent="cbZ9QSaGFKGjNICXO5lZ-61">
          <mxGeometry y="160" width="200" height="60" as="geometry" />
        </mxCell>
        <mxCell id="cbZ9QSaGFKGjNICXO5lZ-83" style="shape=partialRectangle;html=1;whiteSpace=wrap;connectable=0;strokeColor=inherit;overflow=hidden;fillColor=none;top=0;left=0;bottom=0;right=0;pointerEvents=1;fontSize=16;" vertex="1" parent="cbZ9QSaGFKGjNICXO5lZ-82">
          <mxGeometry width="100" height="60" as="geometry">
            <mxRectangle width="100" height="60" as="alternateBounds" />
          </mxGeometry>
        </mxCell>
        <mxCell id="cbZ9QSaGFKGjNICXO5lZ-84" value="&lt;font style=&quot;font-size: 9px;&quot;&gt;Data Yang Dimiliki atau Diterima Oleh Tiap Departemen&lt;/font&gt;" style="shape=partialRectangle;html=1;whiteSpace=wrap;connectable=0;strokeColor=inherit;overflow=hidden;fillColor=none;top=0;left=0;bottom=0;right=0;pointerEvents=1;fontSize=16;" vertex="1" parent="cbZ9QSaGFKGjNICXO5lZ-82">
          <mxGeometry x="100" width="100" height="60" as="geometry">
            <mxRectangle width="100" height="60" as="alternateBounds" />
          </mxGeometry>
        </mxCell>
        <mxCell id="cbZ9QSaGFKGjNICXO5lZ-85" style="shape=tableRow;horizontal=0;startSize=0;swimlaneHead=0;swimlaneBody=0;strokeColor=inherit;top=0;left=0;bottom=0;right=0;collapsible=0;dropTarget=0;fillColor=none;points=[[0,0.5],[1,0.5]];portConstraint=eastwest;fontSize=16;" vertex="1" parent="cbZ9QSaGFKGjNICXO5lZ-61">
          <mxGeometry y="220" width="200" height="70" as="geometry" />
        </mxCell>
        <mxCell id="cbZ9QSaGFKGjNICXO5lZ-86" style="shape=partialRectangle;html=1;whiteSpace=wrap;connectable=0;strokeColor=inherit;overflow=hidden;fillColor=none;top=0;left=0;bottom=0;right=0;pointerEvents=1;fontSize=16;" vertex="1" parent="cbZ9QSaGFKGjNICXO5lZ-85">
          <mxGeometry width="100" height="70" as="geometry">
            <mxRectangle width="100" height="70" as="alternateBounds" />
          </mxGeometry>
        </mxCell>
        <mxCell id="cbZ9QSaGFKGjNICXO5lZ-87" value="&lt;font style=&quot;font-size: 9px;&quot;&gt;Penghubung Antara Tiap Relasi dengan Departemen&lt;/font&gt;" style="shape=partialRectangle;html=1;whiteSpace=wrap;connectable=0;strokeColor=inherit;overflow=hidden;fillColor=none;top=0;left=0;bottom=0;right=0;pointerEvents=1;fontSize=16;" vertex="1" parent="cbZ9QSaGFKGjNICXO5lZ-85">
          <mxGeometry x="100" width="100" height="70" as="geometry">
            <mxRectangle width="100" height="70" as="alternateBounds" />
          </mxGeometry>
        </mxCell>
        <mxCell id="cbZ9QSaGFKGjNICXO5lZ-78" value="" style="rounded=0;whiteSpace=wrap;html=1;" vertex="1" parent="1">
          <mxGeometry x="490" y="480" width="80" height="30" as="geometry" />
        </mxCell>
        <mxCell id="cbZ9QSaGFKGjNICXO5lZ-79" value="" style="rhombus;whiteSpace=wrap;html=1;" vertex="1" parent="1">
          <mxGeometry x="505" y="525" width="50" height="40" as="geometry" />
        </mxCell>
        <mxCell id="cbZ9QSaGFKGjNICXO5lZ-80" value="" style="rhombus;whiteSpace=wrap;html=1;" vertex="1" parent="1">
          <mxGeometry x="490" y="580" width="80" height="40" as="geometry" />
        </mxCell>
        <mxCell id="cbZ9QSaGFKGjNICXO5lZ-88" value="" style="ellipse;whiteSpace=wrap;html=1;" vertex="1" parent="1">
          <mxGeometry x="490" y="640" width="85" height="40" as="geometry" />
        </mxCell>
        <mxCell id="cbZ9QSaGFKGjNICXO5lZ-89" value="" style="endArrow=none;html=1;rounded=0;" edge="1" parent="1">
          <mxGeometry width="50" height="50" relative="1" as="geometry">
            <mxPoint x="505" y="750" as="sourcePoint" />
            <mxPoint x="555" y="700" as="targetPoint" />
          </mxGeometry>
        </mxCell>
      </root>
    </mxGraphModel>
  </diagram>
</mxfile>
